<svg width="135" height="40" fill="none" xmlns="http://www.w3.org/2000/svg"><path d="M0 4a4 4 0 014-4h127a4 4 0 014 4v32a4 4 0 01-4 4H4a4 4 0 01-4-4V4z" fill="#000000"/><path d="M22.501 5.669c1.25 0 2.435.616 3.34 1.733.814 1.007 1.285 2.142 1.732 3.246l.044.107c.122.301.236.585.357.866.227.525.441 1.025.648 1.514l.142.013c1.021.09 1.903.2 2.665.324.605.097 1.134.202 1.597.312 1.545.364 2.35.77 2.765 1.066l.003.002a.497.497 0 01.2.47l-.195 1.477c-.349 2.595-.774 5.858-1.873 8.819-.155.416-.322.825-.505 1.225a12.115 12.115 0 01-8.16 6.57 12.128 12.128 0 01-5.534-.001 12.126 12.126 0 01-8.068-6.402 18.118 18.118 0 01-.637-1.544c-.485-1.335-.835-2.73-1.105-4.095-.358-1.804-.574-3.556-.778-5.048l-.134-.998a.5.5 0 01.208-.474c.414-.298 1.22-.704 2.764-1.068.462-.11.99-.214 1.592-.31a37.401 37.401 0 012.67-.325c.046-.005.094-.008.142-.012.207-.49.42-.99.647-1.514.121-.281.236-.566.358-.867l.044-.11c.447-1.103.92-2.237 1.732-3.243.904-1.117 2.09-1.733 3.34-1.733zm0 2.407c-.686 0-1.214.526-1.468.84a5.786 5.786 0 00-.526.783c-.339.595-.609 1.264-.89 1.96-.122.298-.247.61-.379.915l-.17.398a87.124 87.124 0 013.433-.064c1.256 0 2.397.023 3.434.064l-.17-.397a43.744 43.744 0 01-.379-.916c-.28-.696-.552-1.364-.89-1.96a5.71 5.71 0 00-.527-.783c-.254-.314-.782-.84-1.468-.84z" fill="url(#paint0_linear)"/><path fill-rule="evenodd" clip-rule="evenodd" d="M131 1H4a3 3 0 00-3 3v32a3 3 0 003 3h127a3 3 0 003-3V4a3 3 0 00-3-3zM4 0a4 4 0 00-4 4v32a4 4 0 004 4h127a4 4 0 004-4V4a4 4 0 00-4-4H4z" fill="#A6A6A6"/><path d="M106.31 17.099a.781.781 0 01-.31.061.812.812 0 01-.768-.506.824.824 0 01-.062-.314.753.753 0 01.24-.57.811.811 0 01.59-.24.781.781 0 01.57.24.747.747 0 01.24.57.818.818 0 01-.24.58.784.784 0 01-.26.179zM89.88 16.11h-1.02v6.8h1.02v-6.8zM86.386 16.884c.1-.04.206-.058.314-.054a.779.779 0 01.58.23.83.83 0 01-.265 1.334.8.8 0 01-.895-.184.81.81 0 01.266-1.326zM85.96 23.611c.083-.192.12-.402.11-.611v-3.41h1.12v3.13c.004.392-.06.78-.19 1.15a2.71 2.71 0 01-.53.92 2.46 2.46 0 01-.84.61 2.49 2.49 0 01-1.1.21h-.87l-.2-1.09h.67a2.16 2.16 0 001.46-.41c.16-.136.287-.306.37-.499zM97.16 18.66a.73.73 0 01-.77-.15.69.69 0 01-.2-.48.73.73 0 01.2-.51.691.691 0 01.51-.21.63.63 0 01.48.21.69.69 0 01.2.51.65.65 0 01-.2.48.66.66 0 01-.22.15zM98.78 18.71a.701.701 0 00.5-.2.69.69 0 00.2-.48.73.73 0 00-.2-.51.67.67 0 00-.5-.21.65.65 0 00-.49.21.69.69 0 00-.2.51.65.65 0 00.2.48.678.678 0 00.49.2z" fill="#fff"/><path fill-rule="evenodd" clip-rule="evenodd" d="M107.55 18.42a1.852 1.852 0 00-.6-.51 1.792 1.792 0 00-.84-.19 1.858 1.858 0 00-.73.13c-.213.084-.407.21-.57.37a1.757 1.757 0 00-.37.56c-.09.222-.135.46-.13.7-.015.404.097.803.32 1.14a1.205 1.205 0 001 .47l1.37.05a.792.792 0 01-.13.48.816.816 0 01-.65.2h-3a1.36 1.36 0 01-.63-.15.612.612 0 01-.28-.59v-1.49h-1.09V21c.016.208-.029.417-.13.6-.08.13-.27.19-.55.19h-5a.91.91 0 01-.61-.17.82.82 0 01-.23-.62v-1.41h-1v1.6a1.87 1.87 0 00.38 1.27 1.402 1.402 0 001.14.45h5.61c.371.007.731-.133 1-.39.189.158.417.265.66.31a4 4 0 00.78.08h3.18a1.37 1.37 0 00.72-.18 1.35 1.35 0 00.51-.47c.142-.209.244-.443.3-.69.069-.268.102-.544.1-.82V20a2.478 2.478 0 00-.13-.81 2.063 2.063 0 00-.4-.77zM105.89 20a1.58 1.58 0 01-.46-.1.38.38 0 01-.23-.39.673.673 0 01.223-.556.676.676 0 01.577-.164.73.73 0 01.42.11c.125.07.234.165.32.28.091.125.162.263.21.41.051.145.078.297.08.45l-1.14-.04z" fill="#fff"/><path d="M111.658 24.102a.67.67 0 01.272-.052.646.646 0 01.49.21.628.628 0 01.2.48.677.677 0 01-.2.5.646.646 0 01-.49.21.669.669 0 01-.5-.21.717.717 0 01-.149-.76.655.655 0 01.149-.22.672.672 0 01.228-.158zM114.05 21c.005.103.005.207 0 .31a.526.526 0 01-.35.42 1.271 1.271 0 01-.43.06h-1.66a.999.999 0 01-.59-.15.836.836 0 01-.22-.69v-4.84h-1.1v5.06a1.671 1.671 0 00.48 1.33c.362.289.817.435 1.28.41h2.09a1.437 1.437 0 001.18-.47c.275-.357.413-.8.39-1.25v-1.6h-1.09l.02 1.41zM113.422 24.1a.659.659 0 01.278-.05h.01a.698.698 0 01.68.69.721.721 0 01-.428.659.691.691 0 01-.772-.159.684.684 0 01-.2-.5.619.619 0 01.2-.48.661.661 0 01.232-.16zM117.51 23a1.364 1.364 0 01-.48 1.11 2.18 2.18 0 01-1.46.41h-.27l.18 1.09h.48c.38.006.758-.066 1.11-.21.32-.141.606-.35.84-.61.228-.274.408-.585.53-.92.122-.371.183-.76.18-1.15v-3.13h-1.11V23zM124.51 20.31c.168.174.304.377.4.6.075.174.118.36.13.55a1.31 1.31 0 01-.4 1 1.55 1.55 0 01-1.17.41h-3.31l-.14-1.07h3.47a.52.52 0 00.38-.12.41.41 0 00.094-.127.405.405 0 00.036-.153.558.558 0 00-.19-.4l-2.38-2.49.71-.72 2.37 2.52zM56.615 25.27a2.105 2.105 0 01-2.105-2.105V12.84a2.105 2.105 0 014.21 0v10.325a2.105 2.105 0 01-2.105 2.105zM49.26 27.37H44a2.1 2.1 0 110-4.2h4.21v-6.31a2.1 2.1 0 114.2 0v7.36a3.15 3.15 0 01-3.15 3.15z" fill="#fff"/><path d="M61.87 31.58h-5.4a2.104 2.104 0 110-4.21h4.35V21.2a2.105 2.105 0 014.21-.002v7.212a3.173 3.173 0 01-3.16 3.17zM70.32 27.37a3.19 3.19 0 01-3.19-3.18v-9.3a2.105 2.105 0 014.21 0v8.28h4.21a2.1 2.1 0 110 4.2h-5.23zM62.93 16.85a2.1 2.1 0 100-4.2 2.1 2.1 0 000 4.2zM69.24 33.68a2.1 2.1 0 100-4.2 2.1 2.1 0 000 4.2z" fill="#fff"/><defs><linearGradient id="paint0_linear" x1="22.5" y1="5.669" x2="22.5" y2="33.731" gradientUnits="userSpaceOnUse"><stop stop-color="#98D700"/><stop offset="1" stop-color="#009A53"/></linearGradient></defs></svg>