<svg width="135" height="40" viewBox="0 0 135 40" fill="none" xmlns="http://www.w3.org/2000/svg">
<path d="M130.1 40.0004L4.80043 40.0004C4.16773 40.0089 3.53976 39.8905 2.95357 39.6523C2.36738 39.4141 1.83485 39.0608 1.38744 38.6134C0.940015 38.166 0.586767 37.6335 0.348545 37.0473C0.110322 36.4611 -0.00804732 35.8331 0.000424656 35.2004L0.000424656 4.80043C-0.00804732 4.16773 0.110322 3.53976 0.348545 2.95357C0.586767 2.36738 0.940015 1.83485 1.38744 1.38744C1.83485 0.940015 2.36738 0.586767 2.95357 0.348545C3.53976 0.110322 4.16773 -0.00804732 4.80043 0.000424656L130.2 0.000424656C131.473 0.000424656 132.694 0.506137 133.595 1.40631C134.495 2.30649 135 3.52739 135 4.80043V35.3004C134.957 36.5678 134.421 37.7682 133.505 38.646C132.59 39.5238 131.369 40.0098 130.1 40.0004Z" fill="#A6A6A6"/>
<path d="M130.099 39.0004L4.79943 39.0004C3.79161 39.0004 2.82506 38.6001 2.11242 37.8874C1.39978 37.1748 0.999428 36.2082 0.999428 35.2004L0.999428 4.80042C0.999428 3.7926 1.39978 2.82606 2.11242 2.11342C2.82506 1.40078 3.79161 1.00042 4.79943 1.00042L130.199 1.00042C131.207 1.00042 132.174 1.40078 132.886 2.11342C133.599 2.82606 133.999 3.7926 133.999 4.80042V35.3004C133.94 36.2968 133.504 37.2333 132.78 37.9202C132.056 38.6072 131.098 38.9933 130.099 39.0004Z" fill="black"/>
<path d="M47.3694 10.2004C47.3922 10.5636 47.342 10.9277 47.2218 11.2713C47.1016 11.6148 46.9137 11.9307 46.6694 12.2004C46.3087 12.5642 45.8636 12.8332 45.3738 12.9835C44.884 13.1338 44.3647 13.1609 43.862 13.0621C43.3592 12.9634 42.8887 12.742 42.4921 12.4176C42.0956 12.0932 41.7853 11.6759 41.5889 11.2027C41.3925 10.7295 41.316 10.2152 41.3663 9.7053C41.4165 9.19544 41.592 8.70589 41.877 8.28017C42.1621 7.85445 42.5478 7.50574 43.0001 7.26503C43.4524 7.02433 43.9571 6.89908 44.4694 6.90042C44.8874 6.9047 45.2986 7.00748 45.6694 7.20042C46.0263 7.34966 46.3369 7.59128 46.5694 7.90042L46.0694 8.40042C45.8802 8.16189 45.6355 7.97336 45.3565 7.85133C45.0776 7.7293 44.773 7.67748 44.4694 7.70042C44.167 7.68761 43.8657 7.74401 43.5884 7.86532C43.3112 7.98663 43.0652 8.16965 42.8694 8.40042C42.6291 8.61028 42.4408 8.87305 42.3194 9.16805C42.1979 9.46305 42.1466 9.78222 42.1694 10.1004C42.1466 10.4186 42.1979 10.7378 42.3194 11.0328C42.4408 11.3278 42.6291 11.5906 42.8694 11.8004C43.3048 12.2132 43.8708 12.4608 44.4694 12.5004C44.7866 12.5139 45.1029 12.4582 45.3964 12.3374C45.6899 12.2165 45.9537 12.0333 46.1694 11.8004C46.3294 11.6444 46.4561 11.4577 46.542 11.2515C46.6279 11.0453 46.6713 10.8238 46.6694 10.6004H44.4694V9.80042H47.3694V10.2004ZM51.9694 7.70042L49.2694 7.70042V9.60042L51.7694 9.60042V10.3004L49.2694 10.3004V12.2004H51.9694V13.0004H48.4694V7.00042H51.9694V7.70042ZM55.2694 13.0004H54.4694V7.70042H52.7694V7.00042H56.9694V7.70042H55.2694V13.0004ZM59.8694 13.0004V7.00042H60.6694V13.0004H59.8694ZM64.0694 13.0004H63.2694V7.70042H61.5694V7.00042H65.6694V7.70042H63.9694V13.0004H64.0694ZM73.5624 12.2004C73.0558 12.7123 72.3874 13.0327 71.671 13.1069C70.9546 13.1811 70.2347 13.0045 69.634 12.6072C69.0332 12.21 68.5889 11.6167 68.3766 10.9285C68.1644 10.2402 68.1975 9.49971 68.4701 8.83313C68.7428 8.16655 69.2383 7.61518 69.872 7.27303C70.5058 6.93089 71.2386 6.81914 71.9455 6.95685C72.6524 7.09456 73.2897 7.47319 73.7486 8.0282C74.2076 8.58321 74.4599 9.28023 74.4624 10.0004C74.4738 10.4096 74.3996 10.8166 74.2446 11.1954C74.0896 11.5742 73.8573 11.9165 73.5624 12.2004ZM69.7624 11.7004C70.1865 12.13 70.7591 12.3806 71.3624 12.4004C71.6648 12.4132 71.9661 12.3568 72.2434 12.2355C72.5207 12.1142 72.7666 11.9312 72.9624 11.7004C73.4109 11.2483 73.6625 10.6372 73.6624 10.0004C73.6853 9.68222 73.634 9.36305 73.5125 9.06805C73.391 8.77305 73.2027 8.51028 72.9624 8.30042C72.5384 7.87082 71.9657 7.62027 71.3624 7.60042C71.06 7.58761 70.7587 7.64401 70.4814 7.76532C70.2042 7.88663 69.9582 8.06965 69.7624 8.30042C69.314 8.75258 69.0624 9.36361 69.0624 10.0004C69.0396 10.3186 69.0909 10.6378 69.2124 10.9328C69.3338 11.2278 69.5221 11.4906 69.7624 11.7004ZM75.5624 13.0004V7.00042H76.4624L79.3624 11.7004V7.00042H80.1624V13.0004H79.3624L76.2624 8.10042V13.0004H75.5624Z" fill="white" stroke="white" stroke-width="0.2" stroke-miterlimit="10"/>
<path d="M68.0494 21.8004C67.4812 21.7874 66.9162 21.8898 66.3886 22.1013C65.8611 22.3128 65.3819 22.629 64.9799 23.0309C64.578 23.4329 64.2618 23.9121 64.0503 24.4396C63.8388 24.9672 63.7364 25.5322 63.7494 26.1004C63.7449 26.6664 63.853 27.2276 64.0675 27.7513C64.282 28.2751 64.5986 28.7509 64.9988 29.1511C65.399 29.5513 65.8748 29.8678 66.3985 30.0823C66.9223 30.2968 67.4835 30.405 68.0494 30.4004C68.6177 30.4134 69.1826 30.3111 69.7102 30.0996C70.2378 29.8881 70.717 29.5718 71.1189 29.1699C71.5208 28.768 71.8371 28.2888 72.0486 27.7612C72.2601 27.2336 72.3624 26.6687 72.3494 26.1004C72.3709 25.53 72.2744 24.9612 72.0659 24.4298C71.8574 23.8984 71.5414 23.4158 71.1377 23.0121C70.7341 22.6085 70.2514 22.2925 69.72 22.084C69.1886 21.8755 68.6199 21.779 68.0494 21.8004ZM68.0494 28.6004C67.3951 28.5491 66.7842 28.2529 66.3386 27.7709C65.893 27.289 65.6455 26.6568 65.6455 26.0004C65.6455 25.3441 65.893 24.7119 66.3386 24.2299C66.7842 23.748 67.3951 23.4518 68.0494 23.4004C68.3812 23.4024 68.7091 23.4725 69.0126 23.6065C69.3162 23.7405 69.589 23.9355 69.814 24.1793C70.0391 24.4231 70.2116 24.7105 70.3209 25.0238C70.4302 25.3371 70.474 25.6695 70.4494 26.0004C70.4654 26.3294 70.4157 26.6583 70.3032 26.9678C70.1908 27.2774 70.0178 27.5615 69.7944 27.8035C69.571 28.0455 69.3016 28.2406 69.002 28.3774C68.7025 28.5143 68.3786 28.5901 68.0494 28.6004ZM58.7564 21.8004C58.1882 21.7874 57.6232 21.8898 57.0956 22.1013C56.5681 22.3128 56.0889 22.629 55.6869 23.0309C55.285 23.4329 54.9688 23.9121 54.7573 24.4396C54.5458 24.9672 54.4434 25.5322 54.4564 26.1004C54.4519 26.6664 54.56 27.2276 54.7745 27.7513C54.989 28.2751 55.3056 28.7509 55.7058 29.1511C56.106 29.5513 56.5818 29.8678 57.1055 30.0823C57.6293 30.2968 58.1905 30.405 58.7564 30.4004C59.3247 30.4134 59.8896 30.3111 60.4172 30.0996C60.9448 29.8881 61.424 29.5718 61.8259 29.1699C62.2278 28.768 62.5441 28.2888 62.7556 27.7612C62.9671 27.2336 63.0694 26.6687 63.0564 26.1004C63.0779 25.53 62.9813 24.9612 62.7729 24.4298C62.5644 23.8984 62.2484 23.4158 61.8447 23.0121C61.4411 22.6085 60.9584 22.2925 60.427 22.084C59.8956 21.8755 59.3269 21.779 58.7564 21.8004ZM58.7564 28.6004C58.1021 28.5491 57.4912 28.2529 57.0456 27.7709C56.6 27.289 56.3525 26.6568 56.3525 26.0004C56.3525 25.3441 56.6 24.7119 57.0456 24.2299C57.4912 23.748 58.1021 23.4518 58.7564 23.4004C59.0882 23.4024 59.4161 23.4725 59.7196 23.6065C60.0232 23.7405 60.296 23.9355 60.521 24.1793C60.7461 24.4231 60.9186 24.7105 61.0279 25.0238C61.1372 25.3371 61.181 25.6695 61.1564 26.0004C61.1724 26.3294 61.1227 26.6583 61.0102 26.9678C60.8978 27.2774 60.7248 27.5615 60.5014 27.8035C60.278 28.0455 60.0086 28.2406 59.709 28.3774C59.4095 28.5143 59.0856 28.5901 58.7564 28.6004ZM47.6694 23.1004V24.9004H51.9694C51.9074 25.7585 51.5547 26.5698 50.9694 27.2004C50.5389 27.6332 50.0235 27.9721 49.4555 28.1959C48.8876 28.4196 48.2794 28.5233 47.6694 28.5004C47.0419 28.5069 46.4196 28.3865 45.8398 28.1463C45.26 27.9061 44.7348 27.5511 44.2958 27.1027C43.8567 26.6543 43.5129 26.1218 43.285 25.5371C43.057 24.9524 42.9497 24.3277 42.9694 23.7004C42.9582 23.0754 43.0713 22.4543 43.3022 21.8734C43.5332 21.2925 43.8774 20.7633 44.3147 20.3167C44.7521 19.87 45.2739 19.5148 45.8498 19.2716C46.4258 19.0285 47.0443 18.9023 47.6694 18.9004C48.8922 18.9114 50.0677 19.3745 50.9694 20.2004L52.2694 18.9004C51.0634 17.7337 49.4474 17.0873 47.7694 17.1004C46.013 17.1112 44.3302 17.8069 43.0789 19.0396C41.8276 20.2722 41.1066 21.9444 41.0694 23.7004C41.1066 25.4565 41.8276 27.1287 43.0789 28.3613C44.3302 29.5939 46.013 30.2896 47.7694 30.3004C48.6295 30.3486 49.4895 30.2029 50.2857 29.874C51.0819 29.5451 51.794 29.0415 52.3694 28.4004C53.4247 27.2593 53.998 25.7544 53.9694 24.2004C53.9905 23.8308 53.9568 23.4602 53.8694 23.1004H47.6694ZM93.0354 24.5004C92.7901 23.7322 92.3117 23.0594 91.6666 22.5756C91.0214 22.0917 90.2416 21.8208 89.4354 21.8004C88.8851 21.8028 88.3411 21.918 87.837 22.1389C87.3329 22.3598 86.8795 22.6816 86.5046 23.0846C86.1298 23.4875 85.8415 23.963 85.6576 24.4817C85.4737 25.0005 85.3981 25.5514 85.4354 26.1004C85.4199 26.6609 85.5171 27.2188 85.7214 27.741C85.9257 28.2631 86.2329 28.7389 86.6247 29.14C87.0165 29.5411 87.4849 29.8594 88.0021 30.0759C88.5193 30.2924 89.0747 30.4028 89.6354 30.4004C90.3322 30.4072 91.0192 30.2364 91.6316 29.9039C92.244 29.5715 92.7616 29.0884 93.1354 28.5004L91.7354 27.5004C91.5203 27.8661 91.2133 28.1691 90.845 28.3796C90.4766 28.5901 90.0597 28.7007 89.6354 28.7004C89.1947 28.7232 88.7575 28.611 88.3822 28.3787C88.007 28.1464 87.7115 27.8051 87.5354 27.4004L93.2354 25.0004L93.0354 24.5004ZM87.2354 25.9004C87.2144 25.2818 87.4304 24.6785 87.8393 24.2138C88.2482 23.7491 88.8192 23.4582 89.4354 23.4004C89.759 23.3895 90.0793 23.4676 90.3615 23.6263C90.6436 23.7851 90.8768 24.0182 91.0354 24.3004L87.2354 25.9004ZM82.5354 30.0004H84.4354V17.5004L82.5354 17.5004V30.0004ZM79.5354 22.7004C78.9309 22.0764 78.1041 21.7169 77.2354 21.7004C76.13 21.7519 75.087 22.2276 74.3234 23.0284C73.5597 23.8293 73.1342 24.8938 73.1354 26.0004C73.1275 26.5458 73.2274 27.0873 73.4294 27.5939C73.6314 28.1006 73.9315 28.5623 74.3125 28.9526C74.6935 29.3428 75.1479 29.654 75.6495 29.8681C76.1511 30.0823 76.69 30.1952 77.2354 30.2004C77.6528 30.2039 78.0659 30.1162 78.4459 29.9435C78.8259 29.7707 79.1636 29.5172 79.4354 29.2004H79.5354V29.8004C79.596 30.3545 79.4507 30.9114 79.1272 31.3653C78.8037 31.8191 78.3246 32.1382 77.7812 32.2617C77.2377 32.3852 76.6678 32.3046 76.1799 32.0351C75.692 31.7657 75.3203 31.3262 75.1354 30.8004L73.5354 31.5004C73.8537 32.244 74.3837 32.8775 75.0594 33.322C75.7351 33.7666 76.5266 34.0025 77.3354 34.0004C79.5354 34.0004 81.3354 32.7004 81.3354 29.6004V22.0004L79.5354 22.0004V22.7004ZM77.3354 28.6004C76.6811 28.5491 76.0702 28.2529 75.6246 27.7709C75.179 27.289 74.9315 26.6568 74.9315 26.0004C74.9315 25.3441 75.179 24.7119 75.6246 24.2299C76.0702 23.748 76.6811 23.4518 77.3354 23.4004C77.6594 23.4135 77.9774 23.4919 78.2703 23.6311C78.5632 23.7702 78.825 23.9671 79.0398 24.21C79.2547 24.4529 79.4182 24.7367 79.5206 25.0444C79.6229 25.352 79.662 25.6772 79.6354 26.0004C79.662 26.3236 79.6229 26.6488 79.5206 26.9565C79.4182 27.2642 79.2547 27.548 79.0398 27.7909C78.825 28.0337 78.5632 28.2307 78.2703 28.3698C77.9774 28.5089 77.6594 28.5874 77.3354 28.6004ZM101.717 17.5004H97.2174V30.0004H99.1174V25.3004H101.717C102.752 25.3004 103.744 24.8895 104.475 24.1581C105.207 23.4267 105.617 22.4348 105.617 21.4004C105.617 20.3661 105.207 19.3741 104.475 18.6427C103.744 17.9113 102.752 17.5004 101.717 17.5004ZM101.817 23.5004H99.1174V19.2004H101.817C102.384 19.1998 102.929 19.4178 103.339 19.809C103.749 20.2002 103.992 20.7345 104.017 21.3004C103.996 21.8769 103.757 22.424 103.349 22.8319C102.941 23.2399 102.394 23.4786 101.817 23.5004ZM113.308 21.7004C112.631 21.6458 111.952 21.7982 111.363 22.1374C110.774 22.4767 110.301 22.9869 110.008 23.6004L111.708 24.3004C111.874 24.002 112.123 23.7581 112.425 23.5983C112.727 23.4386 113.068 23.3698 113.408 23.4004C113.882 23.3645 114.352 23.5097 114.723 23.8066C115.095 24.1035 115.339 24.5301 115.408 25.0004V25.1004C114.827 24.7769 114.174 24.6049 113.508 24.6004C111.708 24.6004 109.908 25.6004 109.908 27.4004C109.925 27.7889 110.018 28.1702 110.184 28.5222C110.349 28.8741 110.583 29.1896 110.872 29.4502C111.16 29.7108 111.498 29.9114 111.865 30.0402C112.231 30.169 112.62 30.2235 113.008 30.2004C113.477 30.2163 113.942 30.1149 114.361 29.9053C114.78 29.6957 115.14 29.3846 115.408 29.0004H115.508V30.0004H117.308V25.2004C117.236 24.2083 116.775 23.2847 116.027 22.6296C115.278 21.9745 114.301 21.6407 113.308 21.7004ZM113.108 28.6004C112.508 28.6004 111.608 28.3004 111.608 27.5004C111.608 26.5004 112.708 26.2004 113.608 26.2004C114.198 26.2022 114.78 26.339 115.308 26.6004C115.232 27.138 114.971 27.6322 114.569 27.9974C114.168 28.3626 113.651 28.5759 113.108 28.6004ZM123.608 22.0004L121.508 27.4004H121.408L119.208 22.0004L117.208 22.0004L120.508 29.6004L118.608 33.8004H120.508L125.608 22.0004H123.608ZM106.82 30.0004H108.72V17.5004H106.82V30.0004Z" fill="white"/>
<g filter="url(#filter0_i)">
<path d="M26.9538 24.4572L11.25 33.5238C10.871 33.7426 10.4562 33.7748 10.087 33.6677L22.8539 20.1004L26.9538 24.4572Z" fill="url(#paint0_linear)"/>
<path d="M26.9538 15.7436L22.8539 20.1004L10.087 6.53317C10.4562 6.42599 10.871 6.45822 11.25 6.67703L26.9538 15.7436Z" fill="url(#paint1_linear)"/>
<path d="M9 7.97607V32.2248C9 32.9419 9.48212 33.492 10.087 33.6677L22.8539 20.1004L10.087 6.53317C9.48212 6.70883 9 7.25894 9 7.97607Z" fill="url(#paint2_linear)"/>
<path d="M26.9538 15.7253L22.8539 20.0821L26.9538 24.4389L32.25 21.3812C33.25 20.8038 33.25 19.3604 32.25 18.7831L26.9538 15.7253Z" fill="url(#paint3_linear)"/>
</g>
<defs>
<filter id="filter0_i" x="9" y="6.47382" width="24" height="27.2532" filterUnits="userSpaceOnUse" color-interpolation-filters="sRGB">
<feFlood flood-opacity="0" result="BackgroundImageFix"/>
<feBlend mode="normal" in="SourceGraphic" in2="BackgroundImageFix" result="shape"/>
<feColorMatrix in="SourceAlpha" type="matrix" values="0 0 0 0 0 0 0 0 0 0 0 0 0 0 0 0 0 0 127 0" result="hardAlpha"/>
<feOffset dx="-0.25" dy="-0.25"/>
<feComposite in2="hardAlpha" operator="arithmetic" k2="-1" k3="1"/>
<feColorMatrix type="matrix" values="0 0 0 0 0 0 0 0 0 0 0 0 0 0 0 0 0 0 0.2 0"/>
<feBlend mode="normal" in2="shape" result="effect1_innerShadow"/>
</filter>
<linearGradient id="paint0_linear" x1="24.6599" y1="19.787" x2="7.41958" y2="-7.86226" gradientUnits="userSpaceOnUse">
<stop stop-color="#FF3A44"/>
<stop offset="1" stop-color="#C31162"/>
</linearGradient>
<linearGradient id="paint1_linear" x1="6.94982" y1="43.2793" x2="14.6476" y2="30.888" gradientUnits="userSpaceOnUse">
<stop stop-color="#32A071"/>
<stop offset="0.068" stop-color="#2DA771"/>
<stop offset="0.476" stop-color="#15CF74"/>
<stop offset="0.801" stop-color="#06E775"/>
<stop offset="1" stop-color="#00F076"/>
</linearGradient>
<linearGradient id="paint2_linear" x1="21.5794" y1="34.536" x2="0.347522" y2="28.8933" gradientUnits="userSpaceOnUse">
<stop stop-color="#00A0FF"/>
<stop offset="0.007" stop-color="#00A1FF"/>
<stop offset="0.26" stop-color="#00BEFF"/>
<stop offset="0.512" stop-color="#00D2FF"/>
<stop offset="0.76" stop-color="#00DFFF"/>
<stop offset="1" stop-color="#00E3FF"/>
</linearGradient>
<linearGradient id="paint3_linear" x1="33.7812" y1="22.0775" x2="9.59305" y2="22.0775" gradientUnits="userSpaceOnUse">
<stop stop-color="#FFE000"/>
<stop offset="0.409" stop-color="#FFBD00"/>
<stop offset="0.775" stop-color="#FFA500"/>
<stop offset="1" stop-color="#FF9C00"/>
</linearGradient>
</defs>
</svg>
