<svg width="135" height="40" viewBox="0 0 135 40" fill="none" xmlns="http://www.w3.org/2000/svg">
<path d="M130.1 40.0004L4.80043 40.0004C4.16773 40.0089 3.53976 39.8905 2.95357 39.6523C2.36738 39.4141 1.83485 39.0608 1.38744 38.6134C0.940015 38.166 0.586767 37.6335 0.348545 37.0473C0.110322 36.4611 -0.00804732 35.8331 0.000424656 35.2004L0.000424656 4.80043C-0.00804732 4.16773 0.110322 3.53976 0.348545 2.95357C0.586767 2.36738 0.940015 1.83485 1.38744 1.38744C1.83485 0.940015 2.36738 0.586767 2.95357 0.348545C3.53976 0.110322 4.16773 -0.00804732 4.80043 0.000424656L130.2 0.000424656C131.473 0.000424656 132.694 0.506137 133.595 1.40631C134.495 2.30649 135 3.52739 135 4.80043V35.3004C134.957 36.5678 134.421 37.7682 133.505 38.646C132.59 39.5238 131.369 40.0098 130.1 40.0004Z" fill="#A6A6A6"/>
<path d="M130.099 39.0004L4.79943 39.0004C3.79161 39.0004 2.82506 38.6001 2.11242 37.8874C1.39978 37.1748 0.999428 36.2083 0.999428 35.2004L0.999428 4.80043C0.999428 3.7926 1.39978 2.82606 2.11242 2.11342C2.82506 1.40078 3.79161 1.00043 4.79943 1.00043L130.199 1.00043C131.207 1.00043 132.174 1.40078 132.886 2.11342C133.599 2.82606 133.999 3.7926 133.999 4.80043V35.3004C133.94 36.2968 133.504 37.2333 132.78 37.9202C132.056 38.6072 131.098 38.9933 130.099 39.0004Z" fill="black"/>
<path fill-rule="evenodd" clip-rule="evenodd" d="M100.857 13.0353V13.0553H102.187C102.411 13.0561 102.636 13.036 102.857 12.9953C103.059 12.9486 103.252 12.8674 103.427 12.7553C103.598 12.6331 103.739 12.4721 103.837 12.2853C103.945 12.0494 104.006 11.7947 104.017 11.5353V11.2853C104.026 11.1355 104.026 10.9852 104.017 10.8353C103.996 10.6902 103.966 10.5465 103.927 10.4053C103.888 10.273 103.834 10.1455 103.767 10.0253C103.704 9.90984 103.623 9.80518 103.527 9.71534C103.422 9.62485 103.304 9.55068 103.177 9.49534C103.025 9.44252 102.867 9.4122 102.707 9.40534C102.522 9.39439 102.337 9.42516 102.167 9.49534C102.005 9.56114 101.858 9.6599 101.737 9.78534C101.607 9.9231 101.508 10.0867 101.447 10.2653C101.377 10.4297 101.343 10.6069 101.347 10.7853C101.339 10.9899 101.384 11.193 101.477 11.3753C101.56 11.5404 101.689 11.6788 101.847 11.7753C102.027 11.8834 102.228 11.9516 102.437 11.9753C102.696 12.0051 102.957 12.0051 103.217 11.9753C103.193 12.0199 103.163 12.0604 103.127 12.0953C103.076 12.1411 103.019 12.1782 102.957 12.2053C102.859 12.2417 102.759 12.2685 102.657 12.2853C102.503 12.2971 102.35 12.2971 102.197 12.2853L101.057 12.2853C101.024 12.2753 100.989 12.2753 100.957 12.2853L99.5565 12.2553C99.5407 12.2487 99.5237 12.2453 99.5065 12.2453C99.4894 12.2453 99.4724 12.2487 99.4565 12.2553C99.454 12.2642 99.4521 12.2731 99.4511 12.2822L98.2666 12.2566V12.2553H98.207C98.1912 12.2487 98.1737 12.2453 98.1566 12.2453C98.1394 12.2453 98.1224 12.2487 98.1066 12.2553L97.8766 12.2553C97.8335 12.2474 97.7926 12.2303 97.7565 12.2053C97.7096 12.191 97.6678 12.1632 97.6366 12.1253C97.5978 12.0888 97.5671 12.0445 97.5466 11.9953C97.5352 11.9292 97.5352 11.8615 97.5466 11.7953V10.7953H96.7166V11.9153C96.7256 12.0014 96.7005 12.0876 96.6466 12.1553C96.5953 12.2078 96.5288 12.2427 96.4566 12.2553C96.3538 12.2715 96.2493 12.2715 96.1466 12.2553H92.2666C92.2169 12.2463 92.1715 12.2218 92.1366 12.1853C92.087 12.1504 92.0487 12.1018 92.0266 12.0453C92.0085 11.9596 92.0085 11.8711 92.0266 11.7853C92.0231 11.7187 92.0231 11.652 92.0266 11.5853V11.3253L92.0866 11.0753C92.1566 10.9953 92.1566 10.9253 92.1566 10.8653L91.7666 10.7453L91.3765 10.6153C91.3765 10.6201 91.3811 10.6272 91.3869 10.6362C91.4056 10.6651 91.4375 10.7144 91.3765 10.7753C91.335 10.8169 91.3339 10.8611 91.3327 10.9108C91.3315 10.9569 91.3302 11.0076 91.2965 11.0653C91.2265 11.1853 91.2265 11.3053 91.2265 11.4253C91.2129 11.545 91.2129 11.6657 91.2265 11.7853C91.2107 11.8981 91.2107 12.0126 91.2265 12.1253C91.2617 12.3002 91.337 12.4646 91.4465 12.6053C91.4848 12.6595 91.5283 12.7098 91.5765 12.7553C91.6834 12.8631 91.8133 12.9452 91.9566 12.9953C92.1045 13.0469 92.2599 13.0739 92.4166 13.0753H96.1166C96.4755 13.102 96.8316 12.9952 97.1166 12.7753C97.178 12.8364 97.2489 12.887 97.3265 12.9253L97.5666 13.0153L97.8265 13.0653H98.2666V13.0353H99.542C99.5567 13.0384 99.5718 13.0384 99.5865 13.0353H99.5966C99.6124 13.0419 99.6294 13.0453 99.6466 13.0453C99.6637 13.0453 99.6807 13.0419 99.6966 13.0353H100.857ZM102.507 10.2153C102.583 10.205 102.66 10.205 102.737 10.2153C102.843 10.2068 102.951 10.2275 103.047 10.2753C103.117 10.3383 103.172 10.4171 103.207 10.5053C103.244 10.6022 103.271 10.7028 103.287 10.8053V11.1053C103.006 11.1859 102.708 11.1859 102.427 11.1053C102.339 11.0791 102.262 11.0249 102.208 10.9508C102.153 10.8768 102.125 10.7871 102.127 10.6953C102.122 10.6187 102.139 10.5424 102.177 10.4753C102.206 10.412 102.251 10.357 102.307 10.3153C102.364 10.2664 102.433 10.2321 102.507 10.2153Z" fill="white"/>
<path d="M102.587 7.54534L102.007 8.14534L102.597 8.74534L103.197 8.15534L102.587 7.54534Z" fill="white"/>
<path d="M56.743 7.8718C56.6492 7.96557 56.5966 8.09275 56.5966 8.22536C56.5999 8.2868 56.6159 8.3469 56.6434 8.40194C56.6709 8.45698 56.7094 8.50579 56.7566 8.54536C56.8574 8.63 56.9849 8.6764 57.1166 8.6764C57.2482 8.6764 57.3757 8.63 57.4766 8.54536C57.5571 8.45862 57.6002 8.34365 57.5966 8.22536C57.5966 8.09275 57.5439 7.96557 57.4501 7.8718C57.3563 7.77804 57.2292 7.72536 57.0966 7.72536C56.9639 7.72536 56.8368 7.77804 56.743 7.8718Z" fill="white"/>
<path d="M56.6466 13.0054H57.4966V9.20536H56.6466V13.0054Z" fill="white"/>
<path d="M53.6666 13.0554H52.8466V8.34535H53.6666V13.0554Z" fill="white"/>
<path d="M51.9565 12.8554C51.9467 13.1354 51.8927 13.4122 51.7965 13.6754C51.7016 13.9038 51.5622 14.1111 51.3865 14.2854C51.2103 14.4584 50.9988 14.5914 50.7665 14.6754C50.5002 14.7703 50.2193 14.8177 49.9365 14.8154H49.5265V13.9954H49.9365C50.1184 13.9986 50.2999 13.9784 50.4765 13.9354C50.6196 13.9003 50.7508 13.8278 50.8565 13.7254C50.9584 13.6214 51.0339 13.4945 51.0765 13.3554C51.1232 13.1689 51.1467 12.9775 51.1465 12.7854V10.7854H51.9565V12.8554Z" fill="white"/>
<path d="M50.9565 9.38535L51.5465 8.78535L52.1465 9.38535L51.5465 9.98536L50.9565 9.38535Z" fill="white"/>
<path fill-rule="evenodd" clip-rule="evenodd" d="M62.5065 10.5854C62.5144 11.0388 62.4258 11.4888 62.2465 11.9054C62.0933 12.2634 61.8353 12.5667 61.5065 12.7754C61.1697 12.9722 60.7867 13.0759 60.3965 13.0759C60.0064 13.0759 59.6234 12.9722 59.2865 12.7754C58.9548 12.5718 58.6931 12.2718 58.5365 11.9154C58.3506 11.5076 58.2583 11.0634 58.2665 10.6154V10.2854C58.2587 9.83191 58.3473 9.38196 58.5265 8.96536C58.6888 8.60733 58.9488 8.30233 59.2765 8.08536C59.6134 7.88853 59.9964 7.78481 60.3865 7.78481C60.7767 7.78481 61.1597 7.88853 61.4965 8.08536C61.8211 8.29458 62.0781 8.59327 62.2365 8.94536C62.4268 9.36584 62.5191 9.82402 62.5065 10.2854V10.5854ZM61.6166 10.2854C61.643 9.82971 61.5315 9.37667 61.2966 8.98536C61.1953 8.83954 61.0587 8.72177 60.8995 8.64307C60.7404 8.56437 60.5639 8.52732 60.3865 8.53536C60.2101 8.52413 60.0339 8.55986 59.8758 8.63891C59.7177 8.71796 59.5834 8.8375 59.4865 8.98536C59.2416 9.37317 59.1229 9.82731 59.1465 10.2854V10.5754C59.1225 11.0321 59.2375 11.4854 59.4765 11.8754C59.5782 12.0238 59.7161 12.144 59.877 12.2244C60.038 12.3049 60.2168 12.3431 60.3965 12.3354C60.5729 12.3466 60.7492 12.3109 60.9073 12.2318C61.0654 12.1528 61.1997 12.0332 61.2966 11.8854C61.534 11.4914 61.6457 11.0344 61.6166 10.5754V10.2854Z" fill="white"/>
<path d="M65.9214 11.4054C65.9632 11.4961 65.9822 11.5957 65.9766 11.6954C65.9834 11.786 65.9699 11.8771 65.937 11.9619C65.9042 12.0466 65.8527 12.123 65.7865 12.1854C65.5821 12.3275 65.3348 12.3946 65.0865 12.3754C64.7904 12.394 64.497 12.3091 64.2565 12.1354C64.1616 12.0527 64.0869 11.9492 64.0383 11.833C63.9898 11.7168 63.9686 11.591 63.9766 11.4654H63.0865C63.0785 11.7648 63.1661 12.059 63.3365 12.3054C63.527 12.5548 63.7784 12.7511 64.0666 12.8754C64.3835 13.0071 64.7233 13.0751 65.0666 13.0754C65.5386 13.1023 66.0063 12.9722 66.3965 12.7054C66.5523 12.5901 66.6782 12.4391 66.7634 12.2651C66.8487 12.0911 66.8909 11.8991 66.8866 11.7054C66.8897 11.4646 66.8312 11.2271 66.7165 11.0154C66.5846 10.8016 66.4027 10.6232 66.1866 10.4954C65.8728 10.3175 65.5364 10.183 65.1866 10.0954C64.8852 10.0184 64.5982 9.89347 64.3365 9.72536C64.256 9.67651 64.1896 9.60743 64.144 9.52498C64.0984 9.44252 64.0751 9.34957 64.0765 9.25535C64.0726 9.15588 64.0923 9.0569 64.134 8.96651C64.1758 8.87612 64.2383 8.79691 64.3166 8.73536C64.5143 8.60399 64.7496 8.54078 64.9865 8.55536C65.2455 8.53717 65.502 8.61554 65.7066 8.77536C65.7907 8.85648 65.8566 8.95466 65.8997 9.06332C65.9428 9.17197 65.9622 9.28859 65.9566 9.40536H66.8365C66.8374 9.12225 66.7577 8.84476 66.6065 8.60536C66.443 8.36089 66.2144 8.16695 65.9465 8.04536C65.6499 7.9054 65.3245 7.8369 64.9965 7.84536C64.5264 7.82034 64.0625 7.96199 63.6866 8.24535C63.5307 8.36124 63.4043 8.51211 63.3174 8.68581C63.2306 8.8595 63.1858 9.05116 63.1866 9.24535C63.189 9.48097 63.2554 9.71151 63.3787 9.91231C63.502 10.1131 63.6775 10.2766 63.8866 10.3854C64.2004 10.5679 64.5365 10.7091 64.8866 10.8054C65.19 10.8759 65.4781 11.0013 65.7365 11.1754C65.8161 11.2358 65.8795 11.3148 65.9214 11.4054Z" fill="white"/>
<path fill-rule="evenodd" clip-rule="evenodd" d="M73.0565 13.0554H72.9665C72.8036 13.0706 72.6395 13.0706 72.4766 13.0554C72.328 13.0219 72.1837 12.9716 72.0466 12.9054C71.9146 12.8407 71.7932 12.7565 71.6866 12.6554C71.5825 12.5474 71.4979 12.4222 71.4366 12.2854C71.3832 12.367 71.3155 12.4381 71.2365 12.4954C71.1539 12.5603 71.0632 12.6141 70.9665 12.6554C70.8734 12.6958 70.7762 12.726 70.6765 12.7454H70.3765C70.209 12.7465 70.0428 12.716 69.8866 12.6554C69.7329 12.5989 69.5932 12.5102 69.4766 12.3954C69.3557 12.2797 69.2603 12.14 69.1965 11.9854C69.1218 11.8117 69.0843 11.6244 69.0865 11.4354C69.0843 11.2206 69.1323 11.0083 69.2266 10.8154C69.3168 10.6406 69.435 10.4819 69.5765 10.3454C69.7348 10.2105 69.9095 10.0963 70.0965 10.0054C70.2887 9.91181 70.4857 9.82836 70.6866 9.75536L70.6166 9.44536L71.4065 9.25536L72.0065 11.5754C72.0322 11.7017 72.0909 11.819 72.1765 11.9154C72.2489 11.9989 72.3373 12.0669 72.4366 12.1154C72.5226 12.1646 72.618 12.1952 72.7165 12.2054H73.0565V12.2853H73.8265C74.0583 12.2853 74.2895 12.2619 74.5165 12.2153C74.7566 12.174 74.9938 12.1173 75.2266 12.0453C75.4557 11.9869 75.6798 11.9099 75.8965 11.8153C76.0881 11.7433 76.2751 11.6598 76.4566 11.5653L76.1265 11.4653L75.7365 11.2853L75.3765 11.1853L75.0466 11.0953L74.7565 11.0353C74.6935 11.027 74.6296 11.027 74.5666 11.0353H74.4366C74.3952 11.0453 74.3573 11.066 74.3265 11.0953C74.2943 11.1276 74.2674 11.1648 74.2465 11.2053C74.2101 11.2532 74.183 11.3075 74.1665 11.3653L73.4165 11.1353C73.4561 11.008 73.5063 10.8843 73.5666 10.7653C73.625 10.6552 73.6991 10.5542 73.7865 10.4653C73.8725 10.3798 73.9745 10.3118 74.0865 10.2653C74.2101 10.2146 74.3431 10.1907 74.4766 10.1953L74.7365 10.2853L75.0865 10.3853L75.5165 10.5153L75.9766 10.6753L76.4165 10.8353L76.8065 10.9753L77.0965 11.0853H77.2465L77.3565 11.7553L77.2465 11.8253L77.0065 11.9853C77.0316 12.0404 77.0653 12.0911 77.1065 12.1353L77.2465 12.2153H78.0765V12.2586L79.1711 12.2822C79.1715 12.2788 79.172 12.2754 79.1726 12.2721C79.1736 12.2665 79.1749 12.2609 79.1765 12.2553C79.1924 12.2487 79.2094 12.2453 79.2266 12.2453C79.2437 12.2453 79.2607 12.2487 79.2766 12.2553L80.6765 12.2853C80.7091 12.2753 80.744 12.2753 80.7766 12.2853L80.9865 12.2854C81.0895 12.2977 81.1936 12.2977 81.2966 12.2854C81.3648 12.2625 81.429 12.2287 81.4865 12.1854C81.528 12.1393 81.5587 12.0847 81.5765 12.0254C81.582 11.9588 81.582 11.8919 81.5765 11.8254V10.8254H82.3866V11.7654C82.3814 11.8342 82.3902 11.9034 82.4126 11.9687C82.4349 12.034 82.4703 12.0941 82.5165 12.1454C82.632 12.2387 82.7784 12.2852 82.9266 12.2754H83.0465C83.0984 12.2644 83.1466 12.2403 83.1865 12.2054C83.2354 12.1655 83.2733 12.1139 83.2965 12.0554C83.3316 11.9768 83.3486 11.8914 83.3465 11.8054V10.8054H84.1565V11.7454C84.1493 11.8159 84.1572 11.8871 84.1796 11.9543C84.202 12.0216 84.2385 12.0833 84.2866 12.1354C84.3464 12.1912 84.4176 12.2335 84.4952 12.2594C84.5729 12.2853 84.6552 12.2941 84.7365 12.2854C84.7894 12.2959 84.8437 12.2959 84.8966 12.2854C84.9498 12.2725 84.9984 12.2447 85.0366 12.2054C85.0778 12.1611 85.1115 12.1104 85.1366 12.0554C85.1491 11.9826 85.1491 11.9082 85.1366 11.8354V10.8354H85.9465V11.8354C85.9429 11.9043 85.9544 11.9731 85.9803 12.0371C86.0062 12.101 86.0459 12.1585 86.0965 12.2054C86.2319 12.2867 86.3889 12.3251 86.5465 12.3154H86.7365V12.2854H87.7365C87.7896 12.2742 87.8404 12.2539 87.8866 12.2254C87.9374 12.1824 87.9813 12.1318 88.0165 12.0754C88.0346 11.9863 88.0346 11.8944 88.0165 11.8054C88.021 11.7454 88.021 11.6853 88.0165 11.6254V10.9354C88.0165 10.8654 88.0166 10.7954 87.9666 10.7354C87.9696 10.6887 87.9696 10.642 87.9666 10.5954L88.6066 10.2854V10.5954C88.6131 10.6852 88.6131 10.7755 88.6066 10.8654L88.6665 11.1754V11.7254C88.6687 11.9241 88.6313 12.1212 88.5565 12.3054C88.4858 12.4586 88.3875 12.5976 88.2665 12.7154C88.1454 12.8169 88.0063 12.8949 87.8566 12.9454C87.7133 13.0016 87.5604 13.0288 87.4065 13.0254H86.8665V13.1254H86.5465C86.3508 13.1305 86.1554 13.107 85.9666 13.0554C85.8065 13.0099 85.6593 12.9277 85.5366 12.8154C85.4241 12.9185 85.2912 12.9968 85.1466 13.0454C84.9999 13.1016 84.8436 13.1288 84.6865 13.1254C84.5073 13.1301 84.3284 13.1065 84.1565 13.0554C84.0035 13.0074 83.8633 12.9253 83.7466 12.8154C83.6322 12.9107 83.5041 12.9882 83.3665 13.0454C83.2287 13.0959 83.0834 13.123 82.9365 13.1254C82.7531 13.1329 82.5699 13.1057 82.3966 13.0454C82.2481 12.9965 82.1093 12.922 81.9865 12.8254C81.6965 13.0351 81.3441 13.1408 80.9865 13.1254H80.5666V13.0353H79.4165C79.4007 13.0419 79.3837 13.0453 79.3666 13.0453C79.3494 13.0453 79.3324 13.0419 79.3166 13.0353H79.3065C79.2918 13.0384 79.2767 13.0384 79.262 13.0353H77.9566C77.9387 13.039 77.9202 13.0382 77.9027 13.033C77.8962 13.031 77.8898 13.0285 77.8838 13.0253H77.4766C77.2328 13.0272 76.9923 12.9688 76.7766 12.8553C76.5716 12.7386 76.4048 12.5649 76.2966 12.3553L75.7565 12.5953C75.5571 12.6791 75.3535 12.7525 75.1465 12.8153C74.9366 12.8753 74.7165 12.9253 74.4965 12.9653C74.2755 13.0056 74.0512 13.0257 73.8265 13.0253H73.0565V13.0554ZM71.0565 11.4354C71.0668 11.3724 71.0668 11.3083 71.0565 11.2454C71.0614 11.1821 71.0614 11.1186 71.0565 11.0554C71.0565 10.9854 71.0565 10.9054 70.9865 10.8254C70.9527 10.7867 70.9516 10.7456 70.9504 10.7023C70.9492 10.656 70.9479 10.607 70.9065 10.5554C70.6239 10.6371 70.3569 10.7655 70.1166 10.9354C70.0328 10.9937 69.9645 11.0715 69.9174 11.1621C69.8704 11.2526 69.8461 11.3533 69.8465 11.4554C69.845 11.5298 69.8659 11.603 69.9065 11.6654C69.936 11.7316 69.9848 11.7873 70.0466 11.8254C70.1036 11.8671 70.1681 11.8976 70.2365 11.9154C70.3058 11.9302 70.3773 11.9302 70.4465 11.9154C70.5918 11.8992 70.7318 11.8514 70.8565 11.7754C70.9607 11.6902 71.0287 11.5687 71.0466 11.4354H71.0565Z" fill="white"/>
<path d="M74.4065 8.29535L73.8265 8.88535L74.4165 9.48535L75.0165 8.89535L74.4065 8.29535Z" fill="white"/>
<path d="M87.8065 8.37535L87.2166 8.96535L87.8065 9.56535L88.4065 8.97535L87.8065 8.37535Z" fill="white"/>
<path d="M93.6566 10.5253L93.1066 9.97535L93.6466 9.40535L94.2066 9.97535L93.6566 10.5253Z" fill="white"/>
<path d="M95.0266 10.5253L94.4766 9.96535L95.0166 9.40535L95.5866 9.96535L95.0266 10.5253Z" fill="white"/>
<path d="M106.397 13.0553C106.19 13.0723 105.983 13.0723 105.777 13.0553C105.628 13.033 105.483 12.9892 105.347 12.9253C105.238 12.8746 105.142 12.7993 105.067 12.7053C104.992 12.6089 104.935 12.5007 104.897 12.3853C104.861 12.2544 104.838 12.1205 104.827 11.9853V8.34534H105.647V11.4353C105.634 11.5751 105.634 11.7156 105.647 11.8553C105.65 11.946 105.682 12.0333 105.737 12.1053C105.801 12.1634 105.881 12.2016 105.967 12.2153C106.11 12.2279 106.253 12.2279 106.397 12.2153V12.2853H107.807C107.86 12.2742 107.91 12.2539 107.957 12.2253C108.005 12.1798 108.048 12.1295 108.087 12.0753C108.121 11.9897 108.138 11.8978 108.137 11.8053C108.141 11.7454 108.141 11.6853 108.137 11.6253V11.4053C108.141 11.3254 108.141 11.2453 108.137 11.1653V10.5953L108.737 10.2853C108.742 10.3184 108.742 10.3523 108.737 10.3853V11.7253C108.739 11.9241 108.701 12.1212 108.627 12.3053C108.556 12.4586 108.457 12.5976 108.337 12.7153C108.215 12.8169 108.076 12.8949 107.927 12.9453C107.783 13.0008 107.63 13.028 107.477 13.0253H106.397V13.0553Z" fill="white"/>
<path d="M106.377 14.2853L106.977 14.8053L107.477 14.2853L106.917 13.7253L106.377 14.2853Z" fill="white"/>
<path d="M107.737 14.2853L108.347 14.8053L108.837 14.2853L108.277 13.7253L107.737 14.2853Z" fill="white"/>
<path d="M111.587 12.8553C111.574 13.1359 111.516 13.4127 111.417 13.6753C111.325 13.9032 111.189 14.1106 111.017 14.2853C110.837 14.4586 110.622 14.5915 110.387 14.6753C110.12 14.7712 109.839 14.8186 109.557 14.8153H109.157V13.9953H109.557C109.742 13.9979 109.926 13.9778 110.107 13.9353C110.248 13.9025 110.376 13.8296 110.477 13.7253C110.578 13.6214 110.654 13.4945 110.697 13.3553C110.738 13.1684 110.752 12.9763 110.737 12.7853V10.7853H111.557L111.587 12.8553Z" fill="white"/>
<path d="M113.407 13.0653C113.589 13.0512 113.77 13.0211 113.947 12.9753C114.146 12.9409 114.337 12.866 114.507 12.7553C114.591 12.7021 114.666 12.6344 114.727 12.5553C114.812 12.4515 114.875 12.3316 114.913 12.2027C114.951 12.0739 114.962 11.9387 114.947 11.8053C114.913 11.6193 114.842 11.4422 114.737 11.2853L114.277 10.8253L114.017 10.4353L113.847 10.1853L113.747 10.0353V9.96534L113.517 9.62534L112.837 10.0753L114.057 11.8453C114.088 11.8912 114.112 11.9419 114.127 11.9953C114.134 12.0127 114.138 12.0314 114.138 12.0503C114.138 12.0692 114.134 12.088 114.127 12.1053C114.103 12.1566 114.067 12.201 114.021 12.2342C113.976 12.2675 113.923 12.2885 113.867 12.2953C113.711 12.3213 113.552 12.3213 113.397 12.2953C113.201 12.279 113.007 12.2456 112.817 12.1953C112.617 12.1493 112.42 12.0925 112.227 12.0253L111.997 12.8053L112.387 12.9253L112.657 13.0053L112.917 13.0653H113.407Z" fill="white"/>
<path d="M68.1218 16.5354H71.5518C71.6446 16.5354 71.7336 16.5722 71.7993 16.6379C71.8649 16.7035 71.9018 16.7925 71.9018 16.8854V29.0354C71.9018 29.1388 71.8607 29.238 71.7875 29.3111C71.7144 29.3843 71.6152 29.4254 71.5118 29.4254H68.1618C68.0574 29.4254 67.9571 29.3846 67.8824 29.3118C67.8077 29.2389 67.7644 29.1397 67.7618 29.0354V16.8854C67.7644 16.7916 67.8035 16.7026 67.8707 16.6372C67.9379 16.5719 68.028 16.5353 68.1218 16.5354Z" fill="white"/>
<path d="M99.2718 25.3754H114.352C114.448 25.3764 114.542 25.402 114.625 25.4498C114.708 25.4975 114.777 25.5658 114.827 25.6481C114.876 25.7304 114.903 25.8239 114.906 25.9197C114.908 26.0156 114.886 26.1105 114.842 26.1954L113.982 27.9354C113.744 28.3905 113.387 28.7719 112.948 29.0381C112.509 29.3043 112.005 29.4452 111.492 29.4454H99.8318C99.66 29.4446 99.4921 29.3942 99.3484 29.3001C99.2047 29.2061 99.0912 29.0725 99.0218 28.9154L98.0818 26.7954C97.4623 27.6135 96.6609 28.2762 95.741 28.731C94.8211 29.1857 93.808 29.42 92.7818 29.4154H91.7818C91.616 29.4163 91.4533 29.3709 91.312 29.2843C91.1706 29.1978 91.0563 29.0734 90.9818 28.9254L90.0618 27.0854C89.4359 27.8277 88.6549 28.4237 87.7737 28.8315C86.8926 29.2393 85.9327 29.4488 84.9618 29.4454H73.4818C73.4072 29.4459 73.3336 29.4274 73.2681 29.3917C73.2025 29.356 73.1472 29.3042 73.1072 29.2412C73.0672 29.1782 73.0439 29.1061 73.0394 29.0316C73.035 28.9571 73.0495 28.8827 73.0818 28.8154L74.4018 26.1754C74.5187 25.9412 74.6985 25.7443 74.921 25.6065C75.1436 25.4687 75.4001 25.3956 75.6618 25.3954H84.9418C85.2573 25.3993 85.5705 25.3408 85.8633 25.2231C86.1561 25.1054 86.4227 24.9308 86.6476 24.7096C86.8726 24.4883 87.0516 24.2247 87.1741 23.9339C87.2967 23.6431 87.3605 23.3309 87.3618 23.0154V20.9454C87.3644 20.8198 87.4161 20.7003 87.5059 20.6124C87.5956 20.5245 87.7162 20.4753 87.8418 20.4754H91.0718C91.1343 20.474 91.1965 20.4852 91.2547 20.5082C91.3129 20.5313 91.3659 20.5657 91.4106 20.6094C91.4553 20.6532 91.4908 20.7055 91.5151 20.7632C91.5393 20.8209 91.5518 20.8828 91.5518 20.9454V23.0454C91.5498 23.7262 91.4349 24.4021 91.2118 25.0454C91.199 25.0832 91.1955 25.1236 91.2015 25.1631C91.2075 25.2026 91.2229 25.2401 91.2464 25.2724C91.2699 25.3048 91.3009 25.331 91.3366 25.3489C91.3723 25.3668 91.4118 25.3759 91.4518 25.3754H92.8418C93.4748 25.3754 94.0823 25.1253 94.5318 24.6795C94.9813 24.2337 95.2365 23.6284 95.2418 22.9954V20.8954C95.2418 20.7707 95.2913 20.6512 95.3794 20.563C95.4676 20.4749 95.5871 20.4254 95.7118 20.4254H98.9118C99.0364 20.4254 99.156 20.4749 99.2441 20.563C99.3323 20.6512 99.3818 20.7707 99.3818 20.8954V22.9654C99.3844 23.6703 99.266 24.3705 99.0318 25.0354C99.0169 25.0738 99.0118 25.1153 99.0169 25.1561C99.0219 25.197 99.037 25.236 99.0607 25.2696C99.0845 25.3033 99.1162 25.3305 99.153 25.349C99.1898 25.3674 99.2306 25.3765 99.2718 25.3754Z" fill="white"/>
<path d="M66.5718 28.7953L65.2518 26.1553C65.1348 25.9212 64.955 25.7242 64.7325 25.5865C64.51 25.4487 64.2535 25.3756 63.9918 25.3754H50.1418C50.0453 25.3757 49.9504 25.4006 49.8662 25.4477C49.7819 25.4947 49.711 25.5624 49.66 25.6443C49.609 25.7263 49.5797 25.8198 49.5748 25.9162C49.5698 26.0126 49.5894 26.1086 49.6318 26.1954L50.5218 27.9254C50.7572 28.3793 51.1133 28.7595 51.5508 29.0241C51.9884 29.2888 52.4904 29.4276 53.0018 29.4254H66.1718C66.2464 29.4259 66.3199 29.4074 66.3855 29.3717C66.451 29.336 66.5064 29.2842 66.5464 29.2212C66.5864 29.1582 66.6097 29.0861 66.6141 29.0116C66.6186 28.9371 66.604 28.8627 66.5718 28.7953Z" fill="white"/>
<path d="M59.2618 30.8053H57.1918C57.0954 30.8053 57.0027 30.8429 56.9336 30.9102C56.8645 30.9774 56.8244 31.069 56.8218 31.1653V33.1653C56.8244 33.2617 56.8645 33.3533 56.9336 33.4205C57.0027 33.4878 57.0954 33.5254 57.1918 33.5253H59.2618C59.3582 33.5254 59.4508 33.4878 59.5199 33.4205C59.589 33.3533 59.6292 33.2617 59.6318 33.1653V31.1653C59.6292 31.069 59.589 30.9774 59.5199 30.9102C59.4508 30.8429 59.3582 30.8053 59.2618 30.8053Z" fill="white"/>
<path d="M97.2218 30.8053H91.6418C91.5454 30.8053 91.4527 30.8429 91.3836 30.9102C91.3145 30.9774 91.2744 31.069 91.2718 31.1653V33.1653C91.2744 33.2617 91.3145 33.3533 91.3836 33.4205C91.4527 33.4878 91.5454 33.5254 91.6418 33.5253H97.2218C97.3182 33.5254 97.4108 33.4878 97.4799 33.4205C97.549 33.3533 97.5892 33.2617 97.5918 33.1653V31.1653C97.5892 31.069 97.549 30.9774 97.4799 30.9102C97.4108 30.8429 97.3182 30.8053 97.2218 30.8053Z" fill="white"/>
<path d="M60.9318 30.8053H66.5118C66.6082 30.8053 66.7008 30.8429 66.7699 30.9102C66.839 30.9774 66.8792 31.069 66.8818 31.1653V33.1653C66.8792 33.2617 66.839 33.3533 66.7699 33.4205C66.7008 33.4878 66.6082 33.5254 66.5118 33.5253H60.9318C60.8354 33.5254 60.7427 33.4878 60.6736 33.4205C60.6045 33.3533 60.5644 33.2617 60.5618 33.1653V31.1653C60.5644 31.069 60.6045 30.9774 60.6736 30.9102C60.7427 30.8429 60.8354 30.8053 60.9318 30.8053Z" fill="white"/>
<path d="M83.4118 30.8054H81.3518C81.3037 30.804 81.2558 30.8123 81.2109 30.8298C81.1661 30.8473 81.1252 30.8736 81.0907 30.9072C81.0562 30.9408 81.0288 30.9809 81.0101 31.0252C80.9914 31.0696 80.9818 31.1172 80.9818 31.1654V33.1654C80.9818 33.2135 80.9914 33.2611 81.0101 33.3055C81.0288 33.3498 81.0562 33.39 81.0907 33.4235C81.1252 33.4571 81.1661 33.4834 81.2109 33.5009C81.2558 33.5184 81.3037 33.5267 81.3518 33.5254H83.4118C83.4599 33.5267 83.5078 33.5184 83.5526 33.5009C83.5975 33.4834 83.6383 33.4571 83.6728 33.4235C83.7073 33.39 83.7347 33.3498 83.7535 33.3055C83.7722 33.2611 83.7818 33.2135 83.7818 33.1654V31.1654C83.7818 31.1172 83.7722 31.0696 83.7535 31.0252C83.7347 30.9809 83.7073 30.9408 83.6728 30.9072C83.6383 30.8736 83.5975 30.8473 83.5526 30.8298C83.5078 30.8123 83.4599 30.804 83.4118 30.8054Z" fill="white"/>
<path d="M28.256 6.47535C22.466 6.58535 22.086 11.6453 22.086 11.6453C27.906 12.1353 28.256 6.47535 28.256 6.47535Z" fill="white"/>
<path d="M26.336 18.1153C27.4829 19.1475 28.2567 20.5296 28.537 22.0469C28.8173 23.5642 28.5885 25.1316 27.886 26.5053C31.616 20.2753 30.206 15.3753 30.206 15.3753C22.106 11.3153 17.556 14.7753 17.556 14.7753C20.795 14.765 23.9229 15.9549 26.336 18.1153Z" fill="white"/>
<path d="M17.166 19.4553C18.1845 18.3012 19.5595 17.5208 21.0725 17.2381C22.5855 16.9555 24.1496 17.1868 25.516 17.8953C19.316 14.1453 14.446 15.5553 14.446 15.5553C10.446 23.7053 13.846 28.2753 13.846 28.2753C13.8326 25.0275 15.0143 21.8882 17.166 19.4553Z" fill="white"/>
<path d="M16.4034 24.6102C16.6855 26.1254 17.4597 27.5051 18.606 28.5353C21.0141 30.6988 24.1389 31.8924 27.376 31.8853C27.376 31.8853 22.836 35.3453 14.736 31.2853C14.736 31.2853 13.336 26.3753 17.046 20.1553C16.3473 21.5291 16.1214 23.095 16.4034 24.6102Z" fill="white"/>
<path d="M31.136 18.3554C31.1486 21.6049 29.9631 24.745 27.806 27.1754C26.7892 28.3286 25.4159 29.1087 23.9046 29.3914C22.3933 29.6741 20.8309 29.4431 19.466 28.7354C25.656 32.4854 30.536 31.0654 30.536 31.0654C34.576 22.9254 31.136 18.3554 31.136 18.3554Z" fill="white"/>
</svg>
