<?xml version="1.0" encoding="utf-8"?>
<!-- Generator: Adobe Illustrator 20.1.0, SVG Export Plug-In . SVG Version: 6.00 Build 0)  -->
<svg version="1.1" id="Layer_1" xmlns="http://www.w3.org/2000/svg" xmlns:xlink="http://www.w3.org/1999/xlink" x="0px" y="0px"
	 viewBox="0 0 200.7 102.6" style="enable-background:new 0 0 200.7 102.6;" xml:space="preserve">
<style type="text/css">
	.st0{fill:#FF00A4;}
</style>
<g>
	<path class="st0" d="M54.6,14.2c-4.1,0-7.1,1.2-9.5,4.8c0,0,0,0-0.1,0h0c0,0-0.1,0-0.1-0.1v-3.7c0,0,0-0.1-0.1-0.1H34.5
		c0,0-0.1,0-0.1,0.1v29.7c0,0,0,0.1,0.1,0.1h4.2c3.5,0,6.3-2.8,6.3-6.3v-9.2c0-3.7,1.2-6.9,5.5-6.9c5.2,0,4.8,5,4.8,7.8v14.5
		c0,0,0,0.1,0.1,0.1h4.2c3.5,0,6.3-2.8,6.3-6.3V26.6C65.9,19.3,62.7,14.2,54.6,14.2z"/>
	<path class="st0" d="M92.2,15.2C92.1,15.2,92.1,15.2,92.2,15.2l-0.1,2.7c0,0.1-0.1,0.1-0.1,0c-2.2-2.5-5.8-3.7-9.1-3.7
		c-8.8,0-14.9,7.3-14.9,15.9c0,8.5,6.2,15.9,15.1,15.9c3.5,0,7.1-1.3,9-4.3c0,0,0,0,0.1,0c0,0,0.1,0,0.1,0.1v3.2c0,0,0,0.1,0.1,0.1
		h4.2c3.5,0,6.3-2.8,6.3-6.3V15.3c0,0,0-0.1-0.1-0.1H92.2z M85.6,36.8c-4.3,0-6.8-2.9-6.8-6.7c0-3.7,2.5-6.7,6.8-6.7
		s6.8,3.1,6.8,6.7C92.4,33.9,89.9,36.8,85.6,36.8z"/>
	<path class="st0" d="M200.6,1.2h-10.8c0,0-0.1,0-0.1,0.1l-7.2,28.1h6c2.9,0,5.5-2,6.2-4.8L200.6,1.2C200.7,1.2,200.7,1.2,200.6,1.2
		z"/>
	<path class="st0" d="M27.8,42c3.5-3,4.5-7.4,4.5-11.8c0-7.1-4.7-10.2-10.8-12l-2.9-0.9c-2-0.6-5.1-1.6-5.1-4.2
		c0-2.4,2.8-3.7,4.9-3.7c1,0,2.1,0.2,3,0.4c2.9,0.9,6-0.5,7.4-3.2l1.6-3.2c0,0,0-0.1,0-0.1C26.6,1.4,21.2,0,16.8,0
		C8.1,0,1.7,5.8,1.7,14.7c0,8.5,4.7,10.4,11.9,12.4c2.4,0.7,6.9,1.8,6.9,5c0,3.1-2.8,4.4-5.5,4.4c-3.9,0-7.3-2-10.1-4.5L0,41.1
		c0,0,0,0.1,0,0.1c4.5,3.1,9.9,5,15.4,5C19.8,46.2,24.4,45,27.8,42z"/>
	<path class="st0" d="M186.1,32.6c-4.3,0-6.8,3.1-6.8,6.8c0,3.8,2.5,6.7,6.8,6.7c4.3,0,6.8-2.9,6.8-6.7
		C192.9,35.6,190.4,32.6,186.1,32.6z"/>
	<path class="st0" d="M162.4,14.2c-3.5,0-7.1,1.4-9,4.3c0,0,0,0-0.1,0c0,0-0.1,0-0.1-0.1v-3.2c0,0,0-0.1-0.1-0.1h-10.4
		c0,0-0.1,0-0.1,0.1v42.3c0,0,0,0.1,0.1,0.1h4.2c3.5,0,6.3-2.8,6.3-6.3v-8.9c0-0.1,0.1-0.1,0.1,0c2.3,2.5,5.8,3.7,9.1,3.7
		c8.8,0,14.9-7.2,14.9-15.8C177.4,21.6,171.3,14.2,162.4,14.2z M159.7,36.8c-4.3,0-6.8-2.9-6.8-6.7c0-3.7,2.5-6.7,6.8-6.7
		c4.3,0,6.8,3.1,6.8,6.7C166.5,33.9,164,36.8,159.7,36.8z"/>
	<path class="st0" d="M125.6,14.2c-3.5,0-7.1,1.4-9,4.3c0,0,0,0-0.1,0h0c0,0-0.1,0-0.1-0.1v-3.3h-10.6v42.4h4.3
		c3.5,0,6.3-2.8,6.3-6.3v-9.1c0,0,0,0,0,0c2.3,2.6,5.8,3.8,9.2,3.8c8.8,0,14.9-7.2,14.9-15.8C140.7,21.6,134.5,14.2,125.6,14.2z
		 M122.9,36.8c-4.3,0-6.8-2.9-6.8-6.7c0-3.7,2.5-6.7,6.8-6.7s6.8,3.1,6.8,6.7C129.7,33.9,127.2,36.8,122.9,36.8z"/>
	<polygon class="st0" points="3.4,101.6 14.8,101.6 14.8,84.4 27.3,84.4 27.3,74.7 14.8,74.7 14.8,67.4 28.6,67.4 28.6,57.7 
		3.4,57.7 	"/>
	<path class="st0" d="M127.5,74.6c-2.2-2.6-5.8-3.9-9.2-3.9c-8.8,0-14.9,7.3-14.9,15.9c0,8.6,6.2,15.9,15.1,15.9
		c3.5,0,7.2-1.3,9-4.3h0.1v3.3H138V53.3h-10.6V74.6z M121,93.4c-4.3,0-6.8-2.9-6.8-6.7c0-3.7,2.5-6.7,6.8-6.7c4.3,0,6.8,3.1,6.8,6.7
		C127.8,90.5,125.3,93.4,121,93.4z"/>
	<path class="st0" d="M46.8,70.8c-9.6,0-18,5.8-18,15.9c0,10.2,8.4,15.9,18,15.9c9.6,0,18-5.8,18-15.9
		C64.7,76.5,56.4,70.8,46.8,70.8z M46.8,93.4c-4.3,0-6.8-2.9-6.8-6.7c0-3.7,2.5-6.7,6.8-6.7c4.3,0,6.8,3.1,6.8,6.7
		C53.6,90.5,51.1,93.4,46.8,93.4z"/>
	<path class="st0" d="M84,70.8c-9.6,0-18,5.8-18,15.9c0,10.2,8.4,15.9,18,15.9c9.6,0,18-5.8,18-15.9C102,76.5,93.6,70.8,84,70.8z
		 M84,93.4c-4.3,0-6.8-2.9-6.8-6.7c0-3.7,2.5-6.7,6.8-6.7c4.3,0,6.8,3.1,6.8,6.7C90.8,90.5,88.3,93.4,84,93.4z"/>
</g>
</svg>
